<svg width="32" height="32" viewBox="0 0 32 32" fill="none" xmlns="http://www.w3.org/2000/svg">
<path d="M27.3679 23.763C25.3658 28.1596 20.9647 31 16.1563 31C11.8899 31 7.86639 28.739 5.65549 25.0999C2.11193 19.2626 4.95662 12.9897 7.67349 10.5974C8.05792 10.2586 8.57019 10.1068 9.07773 10.1769C9.58422 10.2488 10.0348 10.5392 10.3097 10.9715C11.0044 12.0627 11.835 12.8361 13.6351 13.0637C12.1852 7.65369 12.8332 3.73514 15.5606 1.41583C16.0021 1.04169 16.601 0.911126 17.1565 1.06047C17.7143 1.21275 18.1616 1.63025 18.351 2.17673C19.7959 6.34128 24.2728 10.048 25.2892 11.2162C28.5405 14.9501 29.298 19.5239 27.3679 23.763Z" fill="#3DADFF"/>
</svg>
